HIERARCHY
ROOT Hips
{
	OFFSET 0.000000 97.167313 0.000000
	CHANNELS 6 Xposition Yposition Zposition Xrotation Yrotation Zrotation
	JOINT Spine
	{
		OFFSET 0.000000 13.784798 0.064400
		CHANNELS 3 Xrotation Yrotation Zrotation
		JOINT Spine1
		{
			OFFSET 0.000000 12.037903 0.404700
			CHANNELS 3 Xrotation Yrotation Zrotation
			JOINT Spine2
			{
				OFFSET 0.000000 17.795601 0.420200
				CHANNELS 3 Xrotation Yrotation Zrotation
				JOINT Neck
				{
					OFFSET 0.000000 39.131302 11.954600
					CHANNELS 3 Xrotation Yrotation Zrotation
					JOINT Head
					{
						OFFSET 0.000000 14.456192 15.627699
						CHANNELS 3 Xrotation Yrotation Zrotation
						JOINT HeadTop_End
						{
							OFFSET 0.000000 15.703506 7.603401
							CHANNELS 3 Xrotation Yrotation Zrotation
							End Site
							{
								OFFSET 0.000000 17.447403 0.000000
							}
						}
					}
				}
				JOINT LeftShoulder
				{
					OFFSET 17.399500 24.608795 1.168800
					CHANNELS 3 Xrotation Yrotation Zrotation
					JOINT LeftArm
					{
						OFFSET 18.980635 5.765305 1.818600
						CHANNELS 3 Xrotation Yrotation Zrotation
						JOINT LeftForeArm
						{
							OFFSET 49.290169 0.000000 0.000000
							CHANNELS 3 Xrotation Yrotation Zrotation
							JOINT LeftHand
							{
								OFFSET 31.562012 0.000000 0.000000
								CHANNELS 3 Xrotation Yrotation Zrotation
								JOINT LeftHandThumb1
								{
									OFFSET 6.133995 -4.388519 7.076070
									CHANNELS 3 Xrotation Yrotation Zrotation
									JOINT LeftHandThumb2
									{
										OFFSET 6.037666 -3.485840 3.485847
										CHANNELS 3 Xrotation Yrotation Zrotation
										JOINT LeftHandThumb3
										{
											OFFSET 6.496506 -3.750763 3.750761
											CHANNELS 3 Xrotation Yrotation Zrotation
											JOINT LeftHandThumb4
											{
												OFFSET 5.616882 -3.242905 3.242910
												CHANNELS 3 Xrotation Yrotation Zrotation
												End Site
												{
													OFFSET -1.254608 7.132141 0.375429
												}
											}
										}
									}
								}
								JOINT LeftHandPinky1
								{
									OFFSET 18.920792 -0.453171 -11.426712
									CHANNELS 3 Xrotation Yrotation Zrotation
									JOINT LeftHandPinky2
									{
										OFFSET 4.919586 0.000000 0.000000
										CHANNELS 3 Xrotation Yrotation Zrotation
										JOINT LeftHandPinky3
										{
											OFFSET 5.233047 0.000000 0.000000
											CHANNELS 3 Xrotation Yrotation Zrotation
											JOINT LeftHandPinky4
											{
												OFFSET 5.571716 0.000000 0.000000
												CHANNELS 3 Xrotation Yrotation Zrotation
												End Site
												{
													OFFSET -3.459808 4.342407 -0.466164
												}
											}
										}
									}
								}
								JOINT LeftHandRing1
								{
									OFFSET 22.726120 -0.094986 -6.500475
									CHANNELS 3 Xrotation Yrotation Zrotation
									JOINT LeftHandRing2
									{
										OFFSET 6.408615 0.000000 0.000000
										CHANNELS 3 Xrotation Yrotation Zrotation
										JOINT LeftHandRing3
										{
											OFFSET 6.150223 0.000000 0.000000
											CHANNELS 3 Xrotation Yrotation Zrotation
											JOINT LeftHandRing4
											{
												OFFSET 6.145386 0.000000 0.000000
												CHANNELS 3 Xrotation Yrotation Zrotation
												End Site
												{
													OFFSET -3.671402 4.923981 -0.202372
												}
											}
										}
									}
								}
								JOINT LeftHandMiddle1
								{
									OFFSET 23.373947 0.000000 0.000001
									CHANNELS 3 Xrotation Yrotation Zrotation
									JOINT LeftHandMiddle2
									{
										OFFSET 6.996567 0.000000 0.000000
										CHANNELS 3 Xrotation Yrotation Zrotation
										JOINT LeftHandMiddle3
										{
											OFFSET 7.015945 0.000000 0.000000
											CHANNELS 3 Xrotation Yrotation Zrotation
											JOINT LeftHandMiddle4
											{
												OFFSET 7.721573 0.000000 0.000000
												CHANNELS 3 Xrotation Yrotation Zrotation
												End Site
												{
													OFFSET -4.651108 6.158463 0.251582
												}
											}
										}
									}
								}
								JOINT LeftHandIndex1
								{
									OFFSET 21.310577 -0.490082 6.209344
									CHANNELS 3 Xrotation Yrotation Zrotation
									JOINT LeftHandIndex2
									{
										OFFSET 7.536453 0.000000 0.000000
										CHANNELS 3 Xrotation Yrotation Zrotation
										JOINT LeftHandIndex3
										{
											OFFSET 7.512344 0.000000 0.000000
											CHANNELS 3 Xrotation Yrotation Zrotation
											JOINT LeftHandIndex4
											{
												OFFSET 10.212402 0.000000 0.000001
												CHANNELS 3 Xrotation Yrotation Zrotation
												End Site
												{
													OFFSET -5.180801 8.690506 1.388433
												}
											}
										}
									}
								}
							}
						}
					}
				}
				JOINT RightShoulder
				{
					OFFSET -17.399500 24.608795 1.168800
					CHANNELS 3 Xrotation Yrotation Zrotation
					JOINT RightArm
					{
						OFFSET -18.980635 5.765305 1.818600
						CHANNELS 3 Xrotation Yrotation Zrotation
						JOINT RightForeArm
						{
							OFFSET -49.290169 0.000000 0.000000
							CHANNELS 3 Xrotation Yrotation Zrotation
							JOINT RightHand
							{
								OFFSET -31.562012 0.000000 0.000000
								CHANNELS 3 Xrotation Yrotation Zrotation
								JOINT RightHandThumb1
								{
									OFFSET -6.133995 -4.388519 7.076070
									CHANNELS 3 Xrotation Yrotation Zrotation
									JOINT RightHandThumb2
									{
										OFFSET -6.037666 -3.485840 3.485847
										CHANNELS 3 Xrotation Yrotation Zrotation
										JOINT RightHandThumb3
										{
											OFFSET -6.496506 -3.750763 3.750761
											CHANNELS 3 Xrotation Yrotation Zrotation
											JOINT RightHandThumb4
											{
												OFFSET -5.616882 -3.242905 3.242910
												CHANNELS 3 Xrotation Yrotation Zrotation
												End Site
												{
													OFFSET 1.254608 7.132141 0.375429
												}
											}
										}
									}
								}
								JOINT RightHandIndex1
								{
									OFFSET -21.310577 -0.490082 6.209344
									CHANNELS 3 Xrotation Yrotation Zrotation
									JOINT RightHandIndex2
									{
										OFFSET -7.536453 0.000000 0.000000
										CHANNELS 3 Xrotation Yrotation Zrotation
										JOINT RightHandIndex3
										{
											OFFSET -7.512344 0.000000 0.000000
											CHANNELS 3 Xrotation Yrotation Zrotation
											JOINT RightHandIndex4
											{
												OFFSET -10.212402 0.000000 0.000001
												CHANNELS 3 Xrotation Yrotation Zrotation
												End Site
												{
													OFFSET 5.180801 8.690506 1.388433
												}
											}
										}
									}
								}
								JOINT RightHandMiddle1
								{
									OFFSET -23.373947 0.000000 0.000001
									CHANNELS 3 Xrotation Yrotation Zrotation
									JOINT RightHandMiddle2
									{
										OFFSET -6.996567 0.000000 0.000000
										CHANNELS 3 Xrotation Yrotation Zrotation
										JOINT RightHandMiddle3
										{
											OFFSET -7.015945 0.000000 0.000000
											CHANNELS 3 Xrotation Yrotation Zrotation
											JOINT RightHandMiddle4
											{
												OFFSET -7.721573 0.000000 0.000000
												CHANNELS 3 Xrotation Yrotation Zrotation
												End Site
												{
													OFFSET 4.651108 6.158463 0.251582
												}
											}
										}
									}
								}
								JOINT RightHandRing1
								{
									OFFSET -22.726120 -0.094986 -6.500475
									CHANNELS 3 Xrotation Yrotation Zrotation
									JOINT RightHandRing2
									{
										OFFSET -6.408615 0.000000 0.000000
										CHANNELS 3 Xrotation Yrotation Zrotation
										JOINT RightHandRing3
										{
											OFFSET -6.150223 0.000000 0.000000
											CHANNELS 3 Xrotation Yrotation Zrotation
											JOINT RightHandRing4
											{
												OFFSET -6.145386 0.000000 0.000000
												CHANNELS 3 Xrotation Yrotation Zrotation
												End Site
												{
													OFFSET 3.671402 4.923981 -0.202372
												}
											}
										}
									}
								}
								JOINT RightHandPinky1
								{
									OFFSET -18.920792 -0.453171 -11.426712
									CHANNELS 3 Xrotation Yrotation Zrotation
									JOINT RightHandPinky2
									{
										OFFSET -4.919586 0.000000 0.000000
										CHANNELS 3 Xrotation Yrotation Zrotation
										JOINT RightHandPinky3
										{
											OFFSET -5.233047 0.000000 0.000000
											CHANNELS 3 Xrotation Yrotation Zrotation
											JOINT RightHandPinky4
											{
												OFFSET -5.571716 0.000000 0.000000
												CHANNELS 3 Xrotation Yrotation Zrotation
												End Site
												{
													OFFSET 3.459808 4.342407 -0.466164
												}
											}
										}
									}
								}
							}
						}
					}
				}
			}
		}
	}
	JOINT LeftUpLeg
	{
		OFFSET 19.899099 -7.885101 -3.429500
		CHANNELS 3 Xrotation Yrotation Zrotation
		JOINT LeftLeg
		{
			OFFSET 1.745560 -36.997807 10.304700
			CHANNELS 3 Xrotation Yrotation Zrotation
			JOINT LeftFoot
			{
				OFFSET -1.745558 -29.803308 -13.615400
				CHANNELS 3 Xrotation Yrotation Zrotation
				JOINT LeftToeBase
				{
					OFFSET 1.181900 -18.539904 15.226099
					CHANNELS 3 Xrotation Yrotation Zrotation
					JOINT LeftToe_End
					{
						OFFSET -0.863701 1.402801 16.534700
						CHANNELS 3 Xrotation Yrotation Zrotation
						End Site
						{
							OFFSET 0.000000 16.616566 0.000000
						}
					}
				}
			}
		}
	}
	JOINT RightUpLeg
	{
		OFFSET -19.899099 -7.885101 -3.429500
		CHANNELS 3 Xrotation Yrotation Zrotation
		JOINT RightLeg
		{
			OFFSET -1.745560 -36.997807 10.304700
			CHANNELS 3 Xrotation Yrotation Zrotation
			JOINT RightFoot
			{
				OFFSET 1.745558 -29.803308 -13.615400
				CHANNELS 3 Xrotation Yrotation Zrotation
				JOINT RightToeBase
				{
					OFFSET -1.181900 -18.539904 15.226099
					CHANNELS 3 Xrotation Yrotation Zrotation
					JOINT RightToe_End
					{
						OFFSET 0.863701 1.402801 16.534700
						CHANNELS 3 Xrotation Yrotation Zrotation
						End Site
						{
							OFFSET 0.000000 16.616566 0.000000
						}
					}
				}
			}
		}
	}
}
MOTION
Frames: 5
Frame Time: 0.033333
12.269204 78.855682 5.326037 -376.053905 68.496190 374.538423 8.483329 7.423828 1.221289 2.461472 1.931634 -0.636942 2.483629 1.917927 -0.635309 -2.242126 -1.132242 3.843226 2.656427 -0.630871 4.697268 -0.000000 -0.000001 -0.000001 -0.838799 10.183107 1.390340 11.377689 23.975093 -51.116367 0.000264 -79.359101 0.000229 10.089334 -9.731663 -13.645473 -1.040024 3.640182 -3.510730 16.100694 31.113626 -15.117558 5.274367 38.848255 6.703261 0.000004 0.000001 0.000000 8.869261 7.747837 -73.630122 4.961093 2.522219 -73.809142 4.948443 6.605438 -73.650531 0.000004 -0.000000 -0.000000 4.948453 6.605449 -73.650510 4.948479 6.605429 -73.650538 4.948447 6.605423 -73.650524 -0.000002 0.000002 0.000002 4.946597 6.604910 -73.634309 4.950343 6.605970 -73.666725 4.948437 6.605427 -73.650538 -0.000004 -0.000003 0.000006 4.948439 6.605419 -73.650510 4.948469 6.605454 -73.650531 4.948447 6.605429 -73.650517 -0.000002 0.000006 0.000002 0.481599 4.677447 19.635571 -62.038444 -2.164592 83.438431 0.000039 45.840255 -0.000024 -41.452012 -49.512308 -11.186694 7.806720 -8.751172 13.107885 5.236183 -14.243341 -0.336403 1.269060 -36.067330 -5.396805 -0.000000 -0.000001 0.000001 4.126007 -6.351796 65.982708 4.126001 -6.351830 65.982680 4.126016 -6.351801 65.982701 -0.000001 -0.000003 -0.000002 4.126000 -6.351819 65.982701 4.125998 -6.351828 65.982687 4.126007 -6.351819 65.982694 -0.000001 0.000002 -0.000008 4.126007 -6.351813 65.982708 4.126006 -6.351829 65.982694 4.126025 -6.351805 65.982715 -0.000003 0.000001 -0.000007 4.126002 -6.351802 65.982708 4.126003 -6.351828 65.982687 4.126015 -6.351823 65.982715 -0.000002 0.000003 0.000003 -38.441411 -0.595184 10.528153 42.980721 -10.001821 6.809102 -2.586412 -11.541903 -14.793399 -0.000029 -0.000007 -0.000001 0.000000 -0.000002 -0.000000 12.522729 -12.933599 -22.739530 36.805717 -3.257288 -7.011412 -18.010763 -11.067031 31.763105 -18.543877 -1.003335 6.319162 0.000000 -0.000003 -0.000000 
12.847649 79.333862 5.843389 -381.681134 74.293812 380.206332 6.643776 8.099605 -0.194046 1.577061 2.100853 -1.410980 1.611258 2.085774 -1.417234 -0.522120 -1.886648 4.546808 6.016429 -4.321818 10.514516 0.000000 -0.000000 -0.000000 -0.761667 9.879662 1.143308 6.651365 20.441262 -49.725973 0.000221 -82.501698 0.000180 10.490296 -9.670583 -14.091081 -1.040021 3.640183 -3.510727 16.100702 31.113622 -15.117557 5.274363 38.848258 6.703269 -0.000003 -0.000001 -0.000003 8.869265 7.747832 -73.630129 4.961091 2.522215 -73.809142 4.948449 6.605435 -73.650531 0.000003 -0.000004 -0.000001 4.948456 6.605446 -73.650510 4.948481 6.605425 -73.650538 4.948448 6.605421 -73.650524 0.000002 -0.000001 0.000005 4.946595 6.604909 -73.634309 4.950345 6.605971 -73.666718 4.948439 6.605423 -73.650538 0.000003 0.000000 0.000008 4.948444 6.605421 -73.650517 4.948463 6.605449 -73.650531 4.948439 6.605432 -73.650524 -0.000001 -0.000002 -0.000004 0.519681 4.538922 16.917614 -68.168826 -9.058035 77.379978 0.000021 44.249725 -0.000001 -28.431451 -48.556184 -5.543476 7.806722 -8.751172 13.107876 5.236187 -14.243342 -0.336404 1.269060 -36.067333 -5.396808 -0.000001 -0.000001 -0.000000 4.126008 -6.351798 65.982715 4.126000 -6.351825 65.982674 4.126017 -6.351806 65.982701 -0.000001 -0.000002 0.000003 4.126006 -6.351820 65.982701 4.126005 -6.351824 65.982687 4.126011 -6.351825 65.982694 0.000000 0.000000 -0.000001 4.126009 -6.351815 65.982708 4.126000 -6.351827 65.982687 4.126022 -6.351809 65.982708 -0.000002 0.000001 -0.000007 4.126000 -6.351801 65.982708 4.126009 -6.351826 65.982680 4.126018 -6.351824 65.982715 0.000004 0.000001 -0.000003 -39.594952 -1.295112 7.544021 40.638430 -9.743635 8.405909 -0.067579 -15.476121 -15.191888 0.000023 -0.000009 -0.000003 -0.000000 0.000000 -0.000000 17.189740 -14.705192 -20.256415 34.499760 -6.104841 -5.567480 -14.531186 -11.821012 32.897695 -22.066185 -1.481470 7.078947 -0.000000 0.000001 -0.000000 
13.134897 79.749969 6.279685 -387.715524 79.526809 386.467403 5.381313 9.427690 -1.891633 0.952152 2.450250 -2.421612 1.008015 2.433069 -2.434965 0.503997 -2.676332 5.213898 8.161633 -8.428707 17.219993 -0.000001 0.000000 -0.000001 -0.644167 9.505806 0.711934 2.879005 16.170789 -49.625306 0.000450 -85.313373 0.000456 11.262646 -10.539702 -14.678970 -1.040026 3.640180 -3.510729 16.100696 31.113626 -15.117557 5.274362 38.848258 6.703261 0.000001 0.000003 0.000002 8.869263 7.747837 -73.630129 4.961091 2.522218 -73.809142 4.948445 6.605436 -73.650524 0.000001 0.000001 -0.000000 4.948456 6.605443 -73.650510 4.948481 6.605432 -73.650538 4.948449 6.605423 -73.650524 0.000002 -0.000001 0.000003 4.946593 6.604906 -73.634309 4.950343 6.605974 -73.666725 4.948436 6.605430 -73.650531 -0.000004 -0.000003 0.000006 4.948444 6.605419 -73.650510 4.948470 6.605455 -73.650538 4.948448 6.605428 -73.650524 -0.000001 -0.000000 -0.000001 0.554740 4.363045 13.921528 -75.262906 -11.723383 68.539801 0.000006 42.511487 -0.000006 -10.597735 -52.768273 5.214602 7.806722 -8.751177 13.107881 5.236187 -14.243337 -0.336402 1.269065 -36.067326 -5.396813 -0.000000 -0.000001 0.000002 4.126005 -6.351798 65.982708 4.126000 -6.351824 65.982680 4.126014 -6.351806 65.982701 0.000000 0.000000 0.000002 4.126005 -6.351812 65.982701 4.126005 -6.351827 65.982687 4.126006 -6.351818 65.982694 0.000001 -0.000002 -0.000001 4.126010 -6.351812 65.982708 4.126004 -6.351828 65.982687 4.126023 -6.351812 65.982708 -0.000005 -0.000003 -0.000003 4.126004 -6.351802 65.982701 4.126002 -6.351829 65.982687 4.126020 -6.351819 65.982721 0.000003 -0.000000 0.000006 -41.294654 -1.478301 5.091686 37.761944 -9.515207 9.413365 2.797451 -19.461941 -15.310948 -0.000038 -0.000002 -0.000003 -0.000000 -0.000002 -0.000000 20.804973 -15.638051 -16.813170 32.022963 -7.093376 -4.255073 -12.392331 -15.254270 32.512363 -23.616771 -1.757337 7.767986 -0.000000 -0.000001 -0.000000 
13.140763 80.139099 6.592059 -392.605612 83.398160 391.807627 4.962474 10.959945 -3.488967 0.674634 2.869113 -3.484828 0.760980 2.849322 -3.503571 0.825674 -3.343819 5.578725 8.973136 -12.250595 23.047894 -0.000000 -0.000000 0.000002 -0.493633 9.111894 0.050388 0.197725 12.842984 -50.748968 0.002095 -87.085834 0.002014 12.484390 -11.362667 -15.409298 -1.040031 3.640179 -3.510730 16.100692 31.113629 -15.117555 5.274364 38.848251 6.703267 0.000001 0.000001 -0.000001 8.869256 7.747837 -73.630129 4.961090 2.522220 -73.809148 4.948440 6.605430 -73.650531 0.000005 0.000001 -0.000004 4.948454 6.605442 -73.650510 4.948479 6.605429 -73.650538 4.948452 6.605420 -73.650524 -0.000000 -0.000001 0.000003 4.946593 6.604906 -73.634316 4.950346 6.605973 -73.666725 4.948434 6.605428 -73.650531 -0.000001 -0.000003 0.000003 4.948440 6.605413 -73.650517 4.948466 6.605454 -73.650531 4.948448 6.605430 -73.650524 0.000001 0.000003 0.000002 0.581360 4.269163 10.674126 -82.553696 -9.659964 59.375811 -0.000036 40.790211 0.000019 20.618157 -55.885837 30.825959 7.806723 -8.751170 13.107883 5.236186 -14.243349 -0.336400 1.269060 -36.067330 -5.396807 0.000002 -0.000001 -0.000000 4.126006 -6.351801 65.982708 4.126006 -6.351828 65.982674 4.126014 -6.351794 65.982701 -0.000003 0.000000 -0.000001 4.126005 -6.351819 65.982701 4.126002 -6.351828 65.982687 4.126005 -6.351821 65.982701 -0.000001 -0.000001 -0.000004 4.126010 -6.351816 65.982708 4.126004 -6.351827 65.982687 4.126024 -6.351814 65.982708 -0.000000 0.000000 -0.000002 4.126003 -6.351798 65.982701 4.126002 -6.351828 65.982680 4.126026 -6.351825 65.982721 0.000001 0.000000 0.000000 -42.750198 -1.276305 3.232869 34.636781 -9.373164 9.914820 5.500929 -22.519178 -15.310919 -0.000026 -0.000002 0.000009 -0.000000 -0.000002 0.000000 22.736566 -15.814557 -13.925402 29.923397 -7.653781 -3.427988 -11.819479 -18.766356 31.537743 -23.465695 -1.790922 8.228880 -0.000000 -0.000002 -0.000000 
12.929967 80.540848 6.758065 -391.130209 85.501626 390.921424 5.264198 12.360280 -4.619298 0.695357 3.271565 -4.420029 0.817415 3.247996 -4.441532 0.711585 -3.805182 5.629787 8.814024 -15.212947 27.030218 -0.000000 0.000001 0.000003 -0.253147 8.742045 -1.769247 -1.690065 10.991067 -51.556641 0.001476 -87.967058 0.001512 13.624440 -11.337596 -15.896418 -1.040022 3.640183 -3.510729 16.100696 31.113622 -15.117555 5.274360 38.848251 6.703263 0.000002 0.000001 0.000001 8.869264 7.747834 -73.630129 4.961092 2.522210 -73.809142 4.948446 6.605438 -73.650524 0.000004 0.000001 -0.000007 4.948455 6.605441 -73.650510 4.948484 6.605430 -73.650545 4.948446 6.605423 -73.650524 -0.000001 -0.000001 0.000003 4.946592 6.604910 -73.634309 4.950347 6.605966 -73.666725 4.948436 6.605429 -73.650531 0.000002 0.000002 0.000006 4.948443 6.605416 -73.650517 4.948463 6.605455 -73.650524 4.948444 6.605428 -73.650524 0.000000 0.000003 0.000001 0.610333 4.254923 6.937220 -89.081233 -2.233352 52.625440 -0.000001 36.188272 0.000014 43.058899 -47.488147 47.737725 7.806724 -8.751169 13.107883 5.236189 -14.243336 -0.336399 1.269061 -36.067330 -5.396807 -0.000001 -0.000001 0.000003 4.126001 -6.351794 65.982708 4.126004 -6.351827 65.982687 4.126016 -6.351798 65.982701 -0.000001 -0.000003 -0.000002 4.126005 -6.351812 65.982701 4.126002 -6.351824 65.982687 4.126012 -6.351819 65.982701 0.000002 0.000001 -0.000004 4.126009 -6.351810 65.982701 4.126005 -6.351826 65.982701 4.126024 -6.351806 65.982708 -0.000002 0.000001 -0.000008 4.125999 -6.351798 65.982701 4.126005 -6.351828 65.982680 4.126020 -6.351822 65.982721 0.000000 0.000002 0.000001 -43.469294 -0.890640 2.109772 31.768204 -9.311419 10.048567 7.570384 -24.069322 -15.329134 0.000012 -0.000019 -0.000006 0.000000 -0.000003 -0.000000 23.156476 -15.796976 -12.260672 28.443623 -8.029245 -3.017748 -13.041608 -21.154385 29.623517 -21.610423 -1.606249 8.635530 -0.000000 0.000001 -0.000000 
